<?xml version="1.0" encoding="UTF-8" standalone="no"?>
<!-- Created with Inkscape (http://www.inkscape.org/) -->

<svg
   width="48.000004"
   height="48.000008"
   viewBox="0 0 12.700001 12.700001"
   version="1.1"
   id="svg8"
   inkscape:version="1.4 (e7c3feb100, 2024-10-09)"
   sodipodi:docname="cassette_flat_3.svg"
   xml:space="preserve"
   inkscape:export-filename="mako_foreground.png"
   inkscape:export-xdpi="600"
   inkscape:export-ydpi="600"
   xmlns:inkscape="http://www.inkscape.org/namespaces/inkscape"
   xmlns:sodipodi="http://sodipodi.sourceforge.net/DTD/sodipodi-0.dtd"
   xmlns="http://www.w3.org/2000/svg"
   xmlns:svg="http://www.w3.org/2000/svg"
   xmlns:rdf="http://www.w3.org/1999/02/22-rdf-syntax-ns#"
   xmlns:cc="http://creativecommons.org/ns#"
   xmlns:dc="http://purl.org/dc/elements/1.1/"><defs
     id="defs2" /><sodipodi:namedview
     id="base"
     pagecolor="#ffffff"
     bordercolor="#666666"
     borderopacity="1.0"
     inkscape:pageopacity="0.0"
     inkscape:pageshadow="2"
     inkscape:zoom="11.691751"
     inkscape:cx="13.898688"
     inkscape:cy="23.435326"
     inkscape:document-units="px"
     inkscape:current-layer="layer1"
     showgrid="true"
     units="px"
     borderlayer="true"
     inkscape:showpageshadow="false"
     inkscape:window-width="1180"
     inkscape:window-height="1000"
     inkscape:window-x="0"
     inkscape:window-y="0"
     inkscape:window-maximized="0"
     inkscape:snap-bbox="true"
     inkscape:object-nodes="false"
     inkscape:snap-others="false"
     fit-margin-top="0"
     fit-margin-left="0"
     fit-margin-right="0"
     fit-margin-bottom="0"
     inkscape:pagecheckerboard="false"
     inkscape:snap-bbox-midpoints="false"
     inkscape:snap-bbox-edge-midpoints="false"
     inkscape:bbox-nodes="true"
     inkscape:deskcolor="#d1d1d1"
     showguides="false"><inkscape:grid
       type="xygrid"
       id="grid815"
       spacingx="0.52916667"
       spacingy="0.52916667"
       empspacing="1"
       dotted="false"
       originx="-1.0583334"
       originy="-1.5875001"
       units="px" /></sodipodi:namedview><metadata
     id="metadata5"><rdf:RDF><cc:Work
         rdf:about=""><dc:format>image/svg+xml</dc:format><dc:type
           rdf:resource="http://purl.org/dc/dcmitype/StillImage" /></cc:Work></rdf:RDF></metadata><g
     inkscape:groupmode="layer"
     id="layer1"
     inkscape:label="Layer 1"
     transform="translate(-1.0583336,-1.5875002)"><rect
       style="fill:#d2995b;fill-opacity:1;stroke-width:3.23357;stroke-linecap:square"
       id="rect685"
       width="12.7"
       height="12.700002"
       x="1.0583336"
       y="1.5875002" /><path
       id="path679"
       style="fill:#372014;fill-opacity:1;stroke-width:4.303;stroke-linecap:square"
       d="M 5.8208334 2.6458335 L 5.8208334 3.1750001 L 5.2916668 3.1750001 L 4.7625001 3.1750001 L 4.7625001 3.7041668 L 4.2333335 3.7041668 L 4.2333335 4.2333334 L 3.7041668 4.2333334 L 3.7041668 4.7625001 L 3.1750002 4.7625001 L 3.1750002 5.2916667 L 2.6458335 5.2916667 L 2.6458335 5.8208334 L 2.6458335 6.35 L 2.1166669 6.35 L 2.1166669 6.8791667 L 2.1166669 7.4083333 L 2.1166669 7.9374999 L 2.1166669 8.4666666 L 2.1166669 8.9958332 L 2.1166669 9.5249999 L 2.1166669 14.2875 L 2.6458335 14.2875 L 2.6458335 10.583333 L 3.1750002 10.583333 L 3.1750002 11.1125 L 3.7041668 11.1125 L 3.7041668 11.641666 L 4.2333335 11.641666 L 4.2333335 12.170833 L 4.7625001 12.170833 L 4.7625001 12.7 L 5.2916668 12.7 L 5.8208334 12.7 L 5.8208334 13.229166 L 6.3500001 13.229166 L 6.8791667 13.229166 L 7.4083333 13.229166 L 7.9375 13.229166 L 8.4666666 13.229166 L 8.9958333 13.229166 L 8.9958333 12.7 L 9.5249999 12.7 L 10.054167 12.7 L 10.054167 12.170833 L 10.583333 12.170833 L 10.583333 11.641666 L 11.1125 11.641666 L 11.1125 11.1125 L 11.641667 11.1125 L 11.641667 10.583333 L 12.170833 10.583333 L 12.170833 10.054167 L 12.170833 9.5249999 L 12.7 9.5249999 L 12.7 8.9958332 L 12.7 8.4666666 L 12.7 7.9374999 L 12.7 7.4083333 L 12.7 6.8791667 L 12.7 6.35 L 12.170833 6.35 L 12.170833 5.8208334 L 12.170833 5.2916667 L 11.641667 5.2916667 L 11.641667 4.7625001 L 11.1125 4.7625001 L 11.1125 4.2333334 L 10.583333 4.2333334 L 10.583333 3.7041668 L 10.054167 3.7041668 L 10.054167 3.1750001 L 9.5249999 3.1750001 L 8.9958333 3.1750001 L 8.9958333 2.6458335 L 8.4666666 2.6458335 L 7.9375 2.6458335 L 7.4083333 2.6458335 L 6.8791667 2.6458335 L 6.3500001 2.6458335 L 5.8208334 2.6458335 z M 6.3500001 4.2333334 L 6.8791667 4.2333334 L 7.4083333 4.2333334 L 7.9375 4.2333334 L 8.4666666 4.2333334 L 8.4666666 4.7625001 L 8.9958333 4.7625001 L 9.5249999 4.7625001 L 9.5249999 5.2916667 L 10.054167 5.2916667 L 10.054167 5.8208334 L 10.583333 5.8208334 L 10.583333 6.35 L 10.583333 6.8791667 L 11.1125 6.8791667 L 11.1125 7.4083333 L 11.1125 7.9374999 L 11.1125 8.4666666 L 11.1125 8.9958332 L 10.583333 8.9958332 L 10.583333 9.5249999 L 10.583333 10.054167 L 10.054167 10.054167 L 10.054167 10.583333 L 9.5249999 10.583333 L 9.5249999 11.1125 L 8.9958333 11.1125 L 8.4666666 11.1125 L 8.4666666 11.641666 L 7.9375 11.641666 L 7.4083333 11.641666 L 6.8791667 11.641666 L 6.3500001 11.641666 L 6.3500001 11.1125 L 5.8208334 11.1125 L 5.2916668 11.1125 L 5.2916668 10.583333 L 4.7625001 10.583333 L 4.7625001 10.054167 L 4.2333335 10.054167 L 4.2333335 9.5249999 L 4.2333335 8.9958332 L 3.7041668 8.9958332 L 3.7041668 8.4666666 L 3.7041668 7.9374999 L 3.7041668 7.4083333 L 3.7041668 6.8791667 L 4.2333335 6.8791667 L 4.2333335 6.35 L 4.2333335 5.8208334 L 4.7625001 5.8208334 L 4.7625001 5.2916667 L 5.2916668 5.2916667 L 5.2916668 4.7625001 L 5.8208334 4.7625001 L 6.3500001 4.7625001 L 6.3500001 4.2333334 z " /><g
       id="g1"><path
         id="path680"
         style="fill:#c2dae4;fill-opacity:1;stroke-width:4.303;stroke-linecap:square"
         d="M 6.3500001 4.2333334 L 6.3500001 4.7625001 L 5.8208334 4.7625001 L 5.2916668 4.7625001 L 5.2916668 5.2916667 L 4.7625001 5.2916667 L 4.7625001 5.8208334 L 4.2333335 5.8208334 L 4.2333335 6.35 L 4.2333335 6.8791667 L 3.7041668 6.8791667 L 3.7041668 7.4083333 L 3.7041668 7.9374999 L 3.7041668 8.4666666 L 3.7041668 8.9958332 L 4.2333335 8.9958332 L 4.2333335 9.5249999 L 4.2333335 10.054167 L 4.7625001 10.054167 L 4.7625001 10.583333 L 5.2916668 10.583333 L 5.2916668 11.1125 L 5.8208334 11.1125 L 6.3500001 11.1125 L 6.3500001 11.641666 L 6.8791667 11.641666 L 7.4083333 11.641666 L 7.9375 11.641666 L 8.4666666 11.641666 L 8.4666666 11.1125 L 8.9958333 11.1125 L 9.5249999 11.1125 L 9.5249999 10.583333 L 10.054167 10.583333 L 10.054167 10.054167 L 10.583333 10.054167 L 10.583333 9.5249999 L 10.583333 8.9958332 L 11.1125 8.9958332 L 11.1125 8.4666666 L 11.1125 7.9374999 L 11.1125 7.4083333 L 11.1125 6.8791667 L 10.583333 6.8791667 L 10.583333 6.35 L 10.583333 5.8208334 L 10.054167 5.8208334 L 10.054167 5.2916667 L 9.5249999 5.2916667 L 9.5249999 4.7625001 L 8.9958333 4.7625001 L 8.4666666 4.7625001 L 8.4666666 4.2333334 L 7.9375 4.2333334 L 7.4083333 4.2333334 L 6.8791667 4.2333334 L 6.3500001 4.2333334 z " /><path
         id="rect1"
         style="fill:#062940;fill-opacity:1;stroke-width:5.27008;stroke-linecap:square"
         d="M 6.8791667 6.35 L 6.8791667 6.8791667 L 6.3500001 6.8791667 L 6.3500001 7.4083333 L 5.8208334 7.4083333 L 5.8208334 8.4666666 L 6.3500001 8.4666666 L 6.3500001 8.9958332 L 6.8791667 8.9958332 L 6.8791667 9.5249999 L 7.9375 9.5249999 L 7.9375 8.9958332 L 8.4666666 8.9958332 L 8.4666666 8.4666666 L 8.9958333 8.4666666 L 8.9958333 7.4083333 L 8.4666666 7.4083333 L 8.4666666 6.8791667 L 7.9375 6.8791667 L 7.9375 6.35 L 6.8791667 6.35 z " /><path
         id="path633"
         style="fill:#d78030;fill-opacity:1;stroke-width:4.303;stroke-linecap:square"
         d="m 10.583333,9.5250007 h -0.529166 v 0.5291663 h 0.529166 z M 10.054167,10.054167 H 9.5249998 v 0.529167 H 10.054167 Z M 9.5249998,10.583334 H 8.9958338 V 11.1125 h 0.529166 z" /><rect
         style="fill:#062940;fill-opacity:1;stroke-width:4.303;stroke-linecap:square"
         id="rect686"
         width="1.0583334"
         height="0.5291667"
         x="-8.4666662"
         y="4.7625008"
         transform="rotate(-90)" /><rect
         style="fill:#062940;fill-opacity:1;stroke-width:4.303;stroke-linecap:square"
         id="rect687"
         width="1.0583334"
         height="0.5291667"
         x="-8.4666662"
         y="9.5249996"
         transform="rotate(-90)" /></g></g></svg>
