<svg xmlns="http://www.w3.org/2000/svg" xml:space="preserve" width="240" height="126" viewBox="0 0 63.5 33.337">
  <defs>
   <pattern id="clouds" patternUnits="userSpaceOnUse" width="63.5" height="33.337">
      <path fill="#c8e2ff" d="M10.053 1.059v.529h-.529v.53h-.529v1.057H6.878v.53h-.529v.529H5.82v1.058H4.232v.53h-.529v.528h-.529v1.588H1.587v.53h-.53v.528H.528v.53h-.529v.529H-.53v.529h-.53v1.587h-.528v.53h-.53v2.116h.53v1.058h-.53v2.117h.53v.53h25.4v-.53h.529v-2.117h-.53v-.529h.53V13.23h-.53v-.53h-.529v-1.587h-.529v-.53h-.529v-.528h-1.587v-.53h-.53V6.88h-.529v-.53h-.529v-.529h-1.587V4.763h-.53v-.53h-.529v-.528h-.529V2.646h-.529v-.529h-.53v-.529H12.17v-.53zm37.571 0v.529h-.529v.53h-2.117v.528h-.529v.53h-.529v.529h-.53v.529h-.528v.529h-.53v.53h-2.116v.528h-.53v.53h-.529v2.116h-.529v2.117h.53v.529h-.53v.53h-2.116v.528h-.53v.53h-.529v2.116h.53v.53h.529v.528h.529v1.059h.529v.529h.53v.53h.528v.528H64.03v-2.116h-.53v-.53h-.529v-1.587h-.53v-.53h-.528v-.528h-2.117v-.53h-.53v-.529h-.528v-.529h-.53v-.529h-.529v-1.058h.53V7.938h-.53v-.53h-.529V5.821h-.529v-.529h-.53v-.529h-2.116V3.705h-.529v-.53h-.53v-.529H50.8v-.529h-.529v-.529h-.53v-.53z">
        <animateTransform attributeName="transform" attributeType="XML" type="translate" calcMode="discrete" dur="2s" keySplines="0.25 0.1 0.25 1;0.25 0.1 0.25 1" keyTimes="0;0.5;1" values="0 0; 0.3 0; 0 0" repeatCount="indefinite" />
      </path>
      <path fill="#c8e2ff" d="M62.971 1.059v.529h.529v.53h.529v1.057h2.117v.53h.529v.529h.529v1.058h1.588v.53h.529v.528h.529v1.588h1.587v.53h.53v.528h.529v.53h.529v.529h.529v.529h.53v1.587h.528v.53h.53v2.116h-.53v1.058h.53v2.117h-.53v.53h-25.4v-.53h-.529v-2.117h.53v-.529h-.53V13.23h.53v-.53h.529v-1.587h.529v-.53h.529v-.528h1.587v-.53h.53V6.88h.529v-.53h.529v-.529h1.587V4.763h.53v-.53h.529v-.528h.529V2.646h.529v-.529h.53v-.529h2.645v-.53zm-37.571 0v.529h.529v.53h2.117v.528h.529v.53h.529v.529h.53v.529h.528v.529h.53v.53h2.116v.528h.53v.53h.529v2.116h.529v2.117h-.53v.529h.53v.53h2.116v.528h.53v.53h.529v2.116h-.53v.53h-.529v.528h-.529v1.059h-.529v.529h-.53v.53h-.528v.528H8.994v-2.116h.53v-.53h.529v-1.587h.53v-.53h.528v-.528h2.117v-.53h.53v-.529h.528v-.529h.53v-.529h.529v-1.058h-.53V7.938h.53v-.53h.529V5.821h.529v-.529h.53v-.529h2.116V3.705h.529v-.53h.53v-.529h2.116v-.529h.529v-.529h.53v-.53z">
        <animateTransform attributeName="transform" attributeType="XML" type="translate" calcMode="discrete" dur="3s" keySplines="0.25 0.1 0.25 1;0.25 0.1 0.25 1" keyTimes="0;0.5;1" values="0 0; -0.4 0; 0 0" repeatCount="indefinite" />
      </path>
    </pattern>
  </defs>
  
  <path fill="#77b4e6" d="M0 0h63.5v33.337H0z"/>
  <rect fill="url(#clouds)" x="0" y="0" width="63.5" height="33.337" />
  <path fill="#6dcc63" d="M62.97 12.7v.53h-1.058v.528h-1.058v-.529h-1.059v.53h-.528v.528h-.53v.53H57.15v-.53h-.53v-.529h-1.058v-.529h-1.587v.53h-1.058v.528h-.53v.53H51.33v.529H50.27v-.53h-1.058v.53h-1.587v.529h-.53v.53h-.528v-.53H44.45v.53h-1.058v-.53h-.53v-.53h-1.058v.53h-.529v.53h-1.058v-1.06h-1.059v-.528H38.1v.529h-.53v.529h-.528v-.53h-1.059v.53h-1.058v.53h-.53v-.53h-1.058v-.53H32.28v-.528H31.22v.529h-1.587v.529h-1.058v-.53h-.53v-.528h-1.587v-.53h-.529v-.529h-1.587v.53h-2.117v-.53h-1.588v.53h-.529v.529h-.529v.529h-2.646v-.53h-.529v-.529h-2.646v.53H12.7v.529h-.53v.529h-.528v.53h-.53v.528h-.529v.53H8.467v-.53h-.53v-.529H6.35v-.529h-.53v-.53H4.763v.53H3.175v-.53H1.058v.53H0v8.996h63.5V12.7z"/>
  <path fill="#5caf37" d="M60.325 14.817v.529h.53v-.53zm.53.529v.529h.528v-.53zm.528 0h.53v-.53h-.53zm-5.291 0v.529h.529v-.53zm-43.392.529v.53h.53v-.53zm.53.53v.528h.528v-.529zm.528 0h.53v-.53h-.53zm10.054-.53v.53H25.4v-.53h-1.588m2.646 0v.53h.53v-.53zm.53.53v.528h.529v-.529zm3.704-.53v.53h.529v-.53zm.529.53v.528h.529v-.529zm.529 0h.53v-.53h-.53zm23.283-.53v.53h.53v-.53zm2.646 0v.53h.53v-.53zm-39.687.53v.528h.529v-.529zm17.991 0v.528h.53v-.529zm25.93 0v.528h.529v-.529zm.529.528v.53h.529v-.53zm-59.796 0v.53h1.587v-.53H2.645m2.646 0v.53h.529v-.53zm.529.53v.529h.529v-.53zm10.583-.53v.53h.53v-.53zm2.646 0v.53h.53v-.53zm3.175 0v.53h1.588v-.53h-1.588m2.117 0v.53h.529v-.53zm4.233 0v.53h.53v-.53zm0 .53h-.53v.529h.53zm0 .529v.529h.53v-.53zm5.82-1.059v.53h.53v-.53zm2.647 0v.53h.529v-.53zm13.229 0v.53h.529v-.53zm5.82 0v.53h.53v-.53zm4.234 0v.53h.53v-.53zm0 .53h-.53v.529h.53zm-48.154 0v.529h1.059v-.53h-1.06m1.058.529v.529h1.058v-1.059h-.529v.53zm1.058.529v1.059h.53v-1.06zm.53 1.058v.53h.529v-.53zm-2.646-1.587h-.53v.529h.53zm7.937-.53v.53h.53v-.53zm1.059 0v.53h.529v-.53zm8.995 0v.53h.53v-.53zm0 .53h-.529v.529h.53zm17.992-.53v.53h.53v-.53zm4.233 0v.53h.53v-.53zm5.292 0v.53h.53v-.53zm-56.62.53v.529h1.587v-.53H1.058m2.116 0v.529h.53v-.53zm4.233 0v.529H6.88v.529h.53v.53h.528v-1.588zm1.059 0v.529h.529v-.53zm9.525 0v.529h.529v-.53zm8.466 0v.529h.53v-.53zm0 .529h-.529v.529h.53zm5.292-.53v.53h.53v-.53zm.53.53v.529h.528v-.53zm3.703-.53v.53h.53v-.53zm5.821 0v.53h.53v-.53zm-42.862.53v.529h.529v-.53zm1.058 0v.529h.53v-.53zm10.054 0v.529h.53v-.53zm6.35 0v.529h.53v-.53zm5.292 0v.529h.529v-.53zm12.7 0v.529h.529v-.53zm5.291 0v.529h.53v-.53zm4.234 0v.529h.529v-.53zm4.233 0v.529h.53v-.53zm3.704 0v.529h.53v-.53zm4.234 0v.529h.529v-.53zm6.35 0v1.587h.529V18.52zm-57.15.529v.53h.529v-.53zm0 .53h-.53v.528h.53zm43.92-.53v.53h.53v-.53zm4.763 0v.53h.53v-.53zm7.408 0v.53h.53v-.53zM.53 19.58v.528h.53v-.529zm7.938 0v.528h.529v-.529zm3.175 0v1.587h.529v-.53h1.059V19.58h-.53v.53h-.53v-.53zm6.35 0v.528h.529v-.529zm1.587 0v.528h.53v-.529zm2.646 0v.528h.53v-.529zm1.587 0v.528h.53v-.529zm5.821 0v1.587h.53v-1.588zm6.35 0v.528h.53v-.529zm4.234 0v.528h.529v-.529zm3.704 0v.528h.529v-.529zm3.704 0v1.587h.53v-1.588zm2.646 0v.528h.529v-.529zm2.646 0v.528h.529v-.529zm2.116 0v.528h.53v-.529zm3.704 0v.528h.53v-.529zm-48.683.528v.53h.53v-.53zm20.638 0v.53h.529v-.53zm7.408 0v.53h.53v-.53zm4.762 0v.53h.53v-.53zm14.288 0v.53h.53v-.53zm4.233 0v1.588h.53v-1.588zm-62.97.53v.529h.529v-.53zm2.645 0v.529h.53v-.53zm1.588 0v.529h.529v-.53zm12.7 0v.529h.529v-.53zm0 .529h-.53v1.588h1.059v-.53h-.53v-1.058m-.53 1.587h-1.058v.53h-.529v.528h.53v.53h.528v-1.059h.53zm-1.058 1.588h-.529V25.4h.53v-1.058m5.292-3.705v.53h.53v-.53zm6.88 0v.53h.528v-.53zm1.587 0v.53h.529v-.53zm5.82 0v.53h.53v-.53zm3.705 0v.53h.529v-.53zm2.116 0v.53h.53v-.53zm2.646 0v.53h.53v-.53zm2.646 0v1.588h.53v-1.588zm7.408 0v.53h.53v-.53zm-43.391.53v.529h.529v-.53zm4.233 0v1.588h.53v-1.588zm4.233 0v.529h.53v-.53zm4.234 0v.529h.529v-.53zm2.116 0v.529h.53v-.53zm7.409 0v1.588h.529v-1.588zm4.233 0v.529h.53v-.53zm11.642 0v1.588h.529v-1.588zm3.704 0v.529h.529v-.53zm3.704 0v.529h.53v-.53zm2.117 0v.529h.529v-.53zm2.645 0v.529h.53v-.53zm-53.975.529v.529h.53v-.53zm1.588 0v.529h.53v-.53zm7.408 0v.529h.53v-.53zm6.35 0v.529h.53v-.53zm20.109 0v.529h.529v-.53zm7.408 0v.529h.53v-.53zm7.408 0v.529h.53v-.53zm4.763 0v.529h.529v-.53zM0 22.225v.53h.53v-.53zm2.117 0v.53h.529v-.53zm5.291 0v.53h.53v-.53zm3.704 0v.53h.53v-.53zm6.88 0v.53h.529v-.53zm4.233 0v.53h.53v-.53zm2.646 0v.53h.529v-.53zm1.587 0v.53h.53v-.53zm1.588 0v.53h.529v-.53zm5.291 0v.53h.53v-.53zm2.646 0v.53h.53v-.53zm2.117 0v.53h.53v-.53zm3.704 0v.53h.53v-.53zm3.704 0v1.588h.53v-1.588zm7.409 0v.53h.529v-.53zm4.233 0v.53h.53v-.53zm3.704 0v.53h.53v-.53zm-61.912.53v.528h.529v-.529zm10.583 0v.528h.53v-.529zm9.525 0v.528h.53v-.529zm13.23 0v.528h.528v-.529zm4.762 0v.528h.529v-.529zm7.408 0v.528h.53v-.529zm-43.392.528v.53h.53v-.53zm2.646 0v.53h.53v-.53zm1.588 0v.53h.529v-.53zm1.587 0v.53h.53v-.53zm10.054 0v.53h.53v-.53zm4.763 0v.53h.529v-.53zm2.116 0v.53h.53v-.53zm3.705 0v.53h.529v-.53zm3.704 0v.53h.529v-.53zm3.704 0v.53h.53v-.53zm4.233 0v.53h.53v-.53zm10.054 0v.53h.53v-.53zm0 .53h-.529v.529h.53zm2.117-.53v.53h.53v-.53zm5.292 0v.53h.529v-.53zm4.233 0v.53h.53v-.53zm-52.387.53v.529h.529v-.53zm2.645 0v.529h.53v-.53zm35.455 0v.529h.529v-.53zm.529.529v.529h.529v-.53zm5.82-.53v.53h.53v-.53zm5.821 0v.53h.53v-.53zm-58.208.53v.529h.53v-.53zm2.117 0v.529h.529v-.53zm3.704 0v.529h.53v-.53zm1.058 0v.529h.53v-.53zm4.763 0v.529h.529v-.53zm5.291 0v.529h.53v-.53zm13.759 0v.529h.529v-.53zm4.233 0v.529h.53v-.53zm5.292 0v.529h.529v-.53zm2.116 0v.529h.53v-.53zm.53.529v.529h.529v-.53zm-33.867 0v.529h.53v-.53zm5.82 0v.529h.53v-.53zm17.992 0v.529h.53v-.53zm5.821 0v.529h.53v-.53zm6.35 0v.529h.53v-.53zm0 .529h-.529v.53h.53zm5.821-.53v.53h.53v-.53zm2.646 0v.53h.53v-.53zm-5.82.53v.53h.528v-.53zm.528.53v.528h.53v-.529zm-.529 0h-.529v.528h.53zm4.763-.53v.53h.529v-.53zm-43.921.53v.528h.529v-.529zm4.233 0v.528h.53v-.529zm24.871 0v.528h.53v-.529zm2.646 0v.528h.529v-.529zm-29.634.528v.53h.53v-.53zm28.046 0v.53h.53v-.53zm4.763 0v.53h.529v-.53zm.529.53v.529h.53v-.53zm-.53 0h-.528v.529h.529z"/>
  <path fill="#9db6cc" d="M16.933 18.521h.529v.529h-.529zM17.462 18.521h.529v.529h-.529zM17.992 18.521h.529v.529h-.529zM18.521 18.521h.529v.529h-.529zM19.05 18.521h.529v.529h-.529zM19.579 18.521h.529v.529h-.529zM20.108 18.521h.529v.529h-.529zM20.638 18.521h.529v.529h-.529zM21.167 18.521h.529v.529h-.529zM21.696 19.05h.529v.529h-.529zM22.225 19.05h.529v.529h-.529zM22.754 19.05h.529v.529h-.529zM23.283 19.05h.529v.529h-.529zM23.813 19.05h.529v.529h-.529zM24.342 19.05h.529v.529h-.529zM24.871 19.05h.529v.529h-.529z"/>
  <path fill="#859baf" d="M25.4 19.05h.529v.529H25.4zM25.929 19.579h.529v.529h-.529zM26.458 20.108h.529v.529h-.529zM26.988 20.108h.529v.529h-.529zM27.517 20.108h.529v.529h-.529zM28.046 20.638h.529v.529h-.529zM28.575 21.167h.529v.529h-.529zM29.104 21.167h.529v.529h-.529zM29.104 21.696h.529v.529h-.529zM29.633 21.696h.529v.529h-.529zM29.633 22.225h.529v.529h-.529zM29.104 22.225h.529v.529h-.529zM29.633 22.754h.529v.529h-.529zM27.517 24.342h.529v.529h-.529zM28.046 24.342h.529v.529h-.529zM26.988 24.342h.529v.529h-.529zM26.458 24.342h.529v.529h-.529zM25.929 24.342h.529v.529h-.529zM25.4 24.342h.529v.529H25.4zM24.871 24.342h.529v.529h-.529zM24.342 24.342h.529v.529h-.529zM23.813 24.342h.529v.529h-.529zM23.283 24.342h.529v.529h-.529zM22.754 24.342h.529v.529h-.529zM22.225 24.342h.529v.529h-.529zM21.696 24.342h.529v.529h-.529zM21.167 24.342h.529v.529h-.529zM20.638 24.342h.529v.529h-.529zM20.108 24.342h.529v.529h-.529zM19.579 24.342h.529v.529h-.529zM19.05 24.342h.529v.529h-.529zM18.521 24.342h.529v.529h-.529zM17.992 24.342h.529v.529h-.529zM17.462 24.342h.529v.529h-.529zM16.933 24.342h.529v.529h-.529zM16.404 24.342h.529v.529h-.529zM13.758 24.342h.529v.529h-.529zM13.229 24.342h.529v.529h-.529zM12.7 24.342h.529v.529H12.7zM12.171 24.342h.529v.529h-.529zM11.642 24.342h.529v.529h-.529zM11.642 22.754h.529v.529h-.529zM12.171 22.225h.529v.529h-.529zM12.7 21.696h.529v.529H12.7z"/>
  <path fill="#9db6cc" d="M12.7 21.167h.529v.529H12.7zM13.229 20.638h.529v.529h-.529zM13.229 20.108h.529v.529h-.529z"/>
  <path fill="#859baf" d="M13.229 19.579h.529v.529h-.529zM13.758 19.579h.529v.529h-.529z"/>
  <path fill="#9db6cc" d="M13.758 19.05h.529v.529h-.529zM15.875 18.521h.529v.529h-.529zM16.404 18.521h.529v.529h-.529z"/>
  <path fill="#859baf" d="M29.633 23.283h.529v.529h-.529zM29.633 23.813h.529v.529h-.529zM29.104 24.342h.529v.529h-.529zM28.575 24.342h.529v.529h-.529zM11.112 23.813h.529v.529h-.529zM11.112 23.283h.529v.529h-.529z"/>
  <path fill="#9db6cc" d="M15.346 19.05h.529v.529h-.529zM14.817 19.05h.529v.529h-.529zM14.287 19.05h.529v.529h-.529z"/>
  <path fill="#859baf" d="M14.287 24.342h.529v.529h-.529zM14.817 24.342h.529v.529h-.529zM15.346 24.342h.529v.529h-.529zM15.875 24.342h.529v.529h-.529zM14.287 19.58h1.588v-.53h5.82v.53h4.234v.528h.53v.53h1.587v.529h.529v.529h.53v1.058h.528v1.588H11.642v-1.059h.529v-.529h.529v-.529h.53v-1.058h.528v-1.059h.53z"/>
  <path fill="#6c8499" d="M13.758 20.108h.529v.529h-.529zM14.287 20.108h.529v.529h-.529zM14.817 20.638h.529v.529h-.529zM15.346 20.638h.529v.529h-.529zM15.875 20.638h.529v.529h-.529zM16.404 20.638h.529v.529h-.529zM16.933 20.638h.529v.529h-.529zM17.463 20.638h.529v.529h-.529zM17.992 20.638h.529v.529h-.529zM18.521 20.638h.529v.529h-.529zM19.05 20.638h.529v.529h-.529zM19.579 20.638h.529v.529h-.529zM20.638 21.167h.529v.529h-.529zM20.108 21.167h.529v.529h-.529zM21.167 21.167h.529v.529h-.529zM21.696 21.167h.529v.529h-.529z"/>
  <path fill="#9db6cc" d="M13.229 19.579h.529v.529h-.529z"/>
  <path fill="#6c8499" d="M26.988 20.108h.529v.529h-.529zM26.458 20.638h.529v.529h-.529zM26.458 21.167h.529v.529h-.529zM25.929 21.167h.529v.529h-.529zM25.929 21.696h.529v.529h-.529zM25.4 21.696h.529v.529H25.4zM24.342 21.696h.529v.529h-.529zM24.871 21.696h.529v.529h-.529zM23.813 22.225h.529v.529h-.529zM23.283 22.225h.529v.529h-.529zM22.754 22.225h.529v.529h-.529zM22.225 22.225h.529v.529h-.529zM21.696 22.225h.529v.529h-.529zM21.167 22.754h.529v.529h-.529zM20.638 22.754h.529v.529h-.529zM20.108 22.754h.529v.529h-.529zM19.579 22.754h.529v.529h-.529zM19.05 22.754h.529v.529h-.529zM18.521 22.754h.529v.529h-.529zM17.992 22.754h.529v.529h-.529zM12.7 21.696h.529v.529H12.7zM13.229 22.225h.529v.529h-.529zM13.758 22.225h.529v.529h-.529zM14.287 22.225h.529v.529h-.529zM14.817 22.225h.529v.529h-.529zM15.346 22.754h.529v.529h-.529zM15.875 23.283h.529v.529h-.529zM16.404 23.283h.529v.529h-.529zM16.933 23.813h.529v.529h-.529zM17.463 23.813h.529v.529h-.529zM17.992 23.813h.529v.529h-.529zM19.05 23.813h.529v.529h-.529zM18.521 23.813h.529v.529h-.529zM19.579 23.813h.529v.529h-.529zM20.108 23.813h.529v.529h-.529zM21.167 23.813h.529v.529h-.529zM20.638 23.813h.529v.529h-.529z"/>
  <path fill="#51697f" d="M29.633 24.342h.529v.529h-.529z"/>
  <path fill="#51697f" d="M29.633 24.342h.529v.529h-.529zM29.633 23.813h.529v.529h-.529zM29.633 23.283h.529v.529h-.529zM29.633 22.754h.529v.529h-.529zM29.633 22.225h.529v.529h-.529zM29.104 21.696h.529v.529h-.529zM29.104 22.225h.529v.529h-.529zM29.633 21.696h.529v.529h-.529zM29.104 22.754h.529v.529h-.529zM29.104 23.283h.529v.529h-.529zM29.104 23.813h.529v.529h-.529zM29.104 24.342h.529v.529h-.529zM28.575 24.342h.529v.529h-.529zM28.575 23.813h.529v.529h-.529zM28.575 23.283h.529v.529h-.529zM28.575 22.754h.529v.529h-.529zM28.575 22.225h.529v.529h-.529zM28.575 21.696h.529v.529h-.529zM28.575 21.167h.529v.529h-.529zM28.046 20.638h.529v.529h-.529zM28.046 21.167h.529v.529h-.529zM29.104 21.167h.529v.529h-.529zM27.517 20.108h.529v.529h-.529zM26.988 20.108h.529v.529h-.529zM26.458 20.108h.529v.529h-.529zM25.929 20.108h.529v.529h-.529zM25.929 19.579h.529v.529h-.529zM25.4 19.05h.529v.529H25.4zM25.4 19.579h.529v.529H25.4zM25.4 20.108h.529v.529H25.4zM26.988 20.638h.529v.529h-.529zM27.517 20.638h.529v.529h-.529zM27.517 21.167h.529v.529h-.529zM27.517 21.696h.529v.529h-.529zM28.046 21.696h.529v.529h-.529zM28.046 22.225h.529v.529h-.529zM28.046 22.754h.529v.529h-.529zM28.046 23.283h.529v.529h-.529zM28.046 23.813h.529v.529h-.529zM28.046 24.342h.529v.529h-.529zM27.517 24.342h.529v.529h-.529zM27.517 23.813h.529v.529h-.529zM27.517 23.283h.529v.529h-.529z"/>
  <path fill="#4a5f71" d="M26.988 20.638h.529v.529h-.529zM27.517 20.638h.529v.529h-.529zM28.046 20.638h.529v.529h-.529z"/>
  <path fill="#44ad6a" d="M0 18.52v12.172h63.5v-8.997h-1.058v-.528h-2.117v.529h-1.588v-.53H57.68v.53h-.529v.529h-1.588v.53h-.529v.528h-2.116v-.529h-.53v-.529h-.529v-.53h-.529v-.528H50.8v-.53h-1.058v-.529h-2.647v.53h-.528v.529H43.92v-.53h-.528v-.529h-.53v-.529h-1.587v.53h-2.117v-.53H37.57v.53h-.528v.528h-1.588v.53h-.529v.529h-1.058v-.53h-1.588v-.529H31.22v.53h-1.058v.529h-1.058v.529h-.529v-.53h-1.058v-.528h-1.059v.529h-.529v-.53H25.4v-.529h-1.058v.53h-1.059v1.058h-1.058v-.53h-.53v-.528h-1.058v.529h-.529v.529H19.05v-.53h-2.117v.53h-.529v-.53h-.529v-.528h-1.588v-.53H13.23v.53H12.17v-.53h-1.058v-.529h-.529v-.529H9.525v-.529H7.937v.53H6.88v.528H6.35v.53H4.762v-.53h-.529v-.529h-.529v-.529H2.645v.53H1.588v-.53H.53v-.53z"/>
  <path fill="#5fbc62" d="M1.587 20.637v.53h.53v-.53zm.53.53v.529h.529v-.53zm.529 0h.529v-.53h-.53zm4.233 0v.529h.53v-.53zm-1.587.529v.529h.529v-.53zm2.645 0v.529h.53v-.53zm23.284 0v.529h.529v-.53zm.529.529v.53h.53v-.53zm.53 0h.528v-.53h-.529zm4.232-.53v.53h.53v-.53zm0 .53h-.529v.53h.53zm1.588-.53v.53h1.588v-.53H38.1m11.112 0v.53h.53v-.53zm.53.53v.53h.529v-.53zm.529 0h.529v-.53h-.53zm-49.213 0v.53h.53v-.53zm0 .53H.53v.528h.53zm18.521-.53v.53h.53v-.53zm7.408 0v.53h.53v-.53zm17.992 0v.53h.53v-.53zm-42.333.53v.528h.529v-.529zm.529.528v.53h.53v-.53zm3.704-.529v.53h.53v-.53zm5.821 0v.53h.53v-.53zm4.762 0v.53h.53v-.53zm4.234 0v.53h.529v-.53zm4.233 0v.53h.53v-.53zm2.646 0v.53h.53v-.53zm5.82 0v.53h.53v-.53zm.53.53v.528h.53v-.529zm0 .528h-.53v.53h.53zm3.704-1.058v.53h.53v-.53zm1.058 0v.53h1.588v-.53h-1.588m4.234 0v.53h.529v-.53zm2.646 0v.53h.529v-.53zm11.112 0v.53h.53v-.53zm0 .53h-.529v.528h-1.588v.53h.53v.529h.529v-.53h1.059v-1.058m-1.058 1.587v.529h.529v-.53zm-.53 0h-.529v.529h.53zm3.176-2.117v.53h1.588v-.53h-1.588m-53.975.53v.528h.529v-.529zm5.291 0v.528h.53v-.529zm4.234 0v.528h.529v-.529zm17.991 0v.528h.53v-.529zm.53.528v.53h.529v-.53zm8.466-.529v.53h.53v-.53zm1.058 0v.53h.53v-.53zm7.938 0v.53h.53v-.53zm.53.53v.529h.528v-.53zm-33.868 0v.529h.53v-.53zm3.705 0v.529h.529v-.53zm5.82 0v.529h.53v-.53zm4.234 0v.529h.529v-.53zm0 .529h-.53v.529h.53zm5.291-.53v.53h.53v-.53zm.53.53v.529h.529v-.53zm7.937-.53v.53h.53v-.53zm4.233 0v.53h.53v-.53zm0 .53h-.529v.529h.53zm5.292-.53v.53h.53v-.53zm0 .53h-.529v.529h.53zm5.292-.53v.53h.529v-.53zm1.058 0v.53h1.588v-.53h-1.588m-60.325.53v1.588h.53v-1.588zm6.35 0v.529h.53v-.53zm4.233 0v.529h.53v-.53zm3.705 0v.529h.529v-.53zm3.704 0v.529h1.059v-.53h-1.06m1.058.529v.529h.53v-.53zm0 .529h-.529v.53h.53zm3.704-1.058v.529h.53v-.53zm5.292 0v.529h.53v-.53zm12.7 0v.529h.53v-.53zm5.292 0v.529h.529v-.53zm16.404 0v.529h.529v-.53zm1.058 0v.529h.53v-.53zm-62.442.529v.529h.53v-.53zm7.409 0v.529h.529v-.53zm4.762 0v.529h.53v-.53zm3.175 0v1.587h.53V24.87zm5.292 0v.529h.53v-.53zm.53.529v.53h.528v-.53zm29.632-.53v.53h.53v-.53zm.53.53v.53h.529v-.53zm0 .53h-.53v.528h.53zm4.762-1.06v.53h.53v.53h.528v-.53h.53v-.53h-1.588m-53.446.53v.53h.53v-.53zm3.704 0v.53h.53v-.53zm2.117 0v.53h.53v-.53zm2.646 0v.53h.53v-.53zm2.646 0v1.588h.529v.529h-.53v.529h1.06v.529h.528v-1.058h.53v-.53h-1.059v-.529h-.529V25.4zm11.641 0v.53h.53v-.53zm6.35 0v1.588h.53V25.4zm5.821 0v.53h.53v-.53zm1.588 0v.53h.529v-.53zm2.646 0v.53h.529v-.53zm1.587 0v.53h.53v-.53zm6.35 0v1.588h.53V25.4zm8.467 0v.53h.529v-.53zm1.058 0v.53h.53v-.53zm1.588 0v.53h.529v-.53zm-60.855.53v1.587h.53v-1.588zm4.234 0v.528h.529v-.529zm14.287 0v.528h.53v-.529zm0 .528h-.529v.53h.53zm1.059-.529v1.058h.529V25.93zm3.704 0v.53h.529v-.53zm7.408 0v.53h.53v-.53zm17.992 0v.53h.529v-.53zm4.233 0v.53h.53v-.53zm.53.53v.528h.528v-.529zm-43.922 0v.528h.53v-.529zm7.409 0v1.587h.529v-1.588zm4.762 0v.528h1.059v-.529h-1.059m2.646 0v.528h.53v-.529zm3.704 0v.528h.53v-.529zm5.821 0v.528h.53v-.529zm1.588 0v.528h.529v-.529zm6.879 0v.528h.529v-.529zm3.704 0v.528h.53v-.529zm11.642 0v.528h.529v-.529zm1.058 0v.528h.53v-.529zm1.587 0v.528h.53v-.529zm2.646 0v.528h.53v-.529zm-60.325.528v.53h.53v-.53zm2.646 0v.53h.53v-.53zm2.117 0v.53h.529v-.53zm3.704 0v.53h.53v-.53zm15.346 0v.53h.529v-.53zm4.233 0v1.588h.53v-1.588zm7.408 0v.53h.53v-.53zm2.117 0v.53h.53v-.53zm4.233 0v.53h.53v-.53zm4.234 0v1.588h.529v-1.588zm-47.096.53v.529h.53v-.53zm4.762 0v.529h.53v-.53zm14.288 0v.529h1.058v-.53h-1.058m20.637 0v.529h.53v-.53zm13.759 0v.529h1.059v-.53h-1.06m1.587 0v.529h1.059v-.53h-1.059m3.175 0v.529h.53v-.53zm0 .529h-.529v.529h.53zm-59.266 0v.529h.529v-.53zm3.704 0v.529h.529v-.53zm4.233 0v.529h.53v-.53zm7.408 0v1.587h1.059v-.529h-.53v-1.059zm1.059 1.058h.529v-.529h-.53zm2.646-1.058v.529h.529v-.53zm0 .529h-.53v.53h.53zm3.704-.53v.53h.529v-.53zm2.116 0v.53h.53v-.53zm2.646 0v.53h.53v-.53zm5.292 0v.53h.53v-.53zm1.587 0v.53h.53v-.53zm1.588 0v.53h.53v-.53zm2.646 0v.53h.529v-.53zm4.233 0v.53h.53v-.53zm2.646 0v.53h.53v-.53zm15.346 0v.53h.529v-.53zm-37.042.53v.53h.53v-.53zm4.763 0v.53h.529v-.53zm13.229 0v.53h.529v-.53zm4.762 0v.53h.53v-.53zm4.763 0v.53h.529v-.53zm1.587 0v.53h.53v-.53zm8.996 0v.53h.53v-.53zm-61.912.53v.528h.529v-.529zm4.233 0v.528h.53v-.529zm5.292 0v.528h.529v-.529zm2.116 0v.528h.53v-.529zm.53.528v.53h.529v-.53zm1.587-.529v.53h.53v-.53zm.53.53v.528h.528v-.529zm0 .528h-.53v.53h.53zm5.82-1.058v.53h.53v-.53zm1.587 0v.53h.53v-.53zm4.234 0v.53h.529v-.53zm3.704 0v.53h.53v-.53zm3.704 0v.53h.53v-.53zm3.704 0v.53h.53v-.53zm2.117 0v.53h.53v-.53zm4.762 0v.53h.53v-.53zm3.705 0v.53h.529v-.53zm6.35 0v.53h.529v-.53zm1.587 0v.53h.53v-.53zm1.588 0v.53h1.058v-.53h-1.058m2.645 0v.53h.53v-.53zm-57.679.53v.528h.53v-.529zm5.821 0v.528h.53v-.529zm50.8 0v.528h.53v-.529zm0 .528h-.529v.53h.53zm-40.746 0v.53h1.059v-.53h-1.059m0 .53h-.529v.529h.53zm2.117-.53v1.059h.53v-1.059zm1.058 0v.53h.53v-.53zm.53.53v.529h.529v-.53zm3.704-.53v.53h.529v-.53zm4.233 0v.53h.53v-.53zm13.758 0v.53h.53v-.53zm4.234 0v.53h.529v-.53zm3.175 0v.53h.529v-.53zm1.587 0v.53h.53v-.53zm1.588 0v.53h1.058v-.53h-1.058m2.645 0v.53h.53v-.53zm3.705 0v.53h.529v-.53zm-53.446.53v.529h.529v-.53zm2.646 0v.529h.529v-.53zm5.82 0v.529h.53v-.53zm.53.529v.529h.529v-.53zm-.53 0h-.529v.529h.53zm12.171-.53v.53h.53v-.53zm17.992 0v.53h.53v-.53zm-37.57.53v.529h.528v-.53zm4.762 0v.529h.529v-.53zm.529.529v.53h.529v-.53zm-.53 0h-.529v.53h.53zm38.63-.53v.53h.529v-.53zm3.704 0v.53h.53v-.53zm2.117 0v.53h.529v-.53zm-37.042.53v.53h.53v-.53zm2.646 0v.53h.529v-.53zm-5.821.53v.528h.53v-.529zm.53.528v.53h.528v-.53zm-.53 0h-.53v.53h.53zm4.762-.529v.53h.53v-.53z"/>
  <path fill="#9db6cc" d="M34.396 23.813h.529v.529h-.529z"/>
  <path fill="#9db6cc" d="M34.925 23.813h.529v.529h-.529zM35.454 23.813h.529v.529h-.529z"/>
  <path fill="#9db6cc" d="M35.983 23.813h.529v.529h-.529zM36.513 23.813h.529v.529h-.529zM37.042 23.813h.529v.529h-.529z"/>
  <path fill="#9db6cc" d="M37.571 23.813h.529v.529h-.529zM38.1 23.813h.529v.529H38.1z"/>
  <path fill="#9db6cc" d="M38.629 23.813h.529v.529h-.529zM39.158 24.342h.529v.529h-.529zM39.688 24.342h.529v.529h-.529z"/>
  <path fill="#9db6cc" d="M40.217 24.342h.529v.529h-.529zM40.746 24.342h.529v.529h-.529z"/>
  <path fill="#9db6cc" d="M41.275 24.342h.529v.529h-.529zM41.804 24.342h.529v.529h-.529z"/>
  <path fill="#9db6cc" d="M42.333 24.342h.529v.529h-.529z"/>
  <path fill="#859baf" d="M42.863 24.342h.529v.529h-.529zM43.392 24.871h.529v.529h-.529zM43.921 25.4h.529v.529h-.529zM44.45 25.4h.529v.529h-.529z"/>
  <path fill="#859baf" d="M44.979 25.4h.529v.529h-.529zM45.508 25.929h.529v.529h-.529zM46.038 26.458h.529v.529h-.529zM46.567 26.458h.529v.529h-.529zM46.567 26.988h.529v.529h-.529z"/>
  <path fill="#859baf" d="M47.096 26.988h.529v.529h-.529zM47.096 27.517h.529v.529h-.529z"/>
  <path fill="#859baf" d="M46.567 27.517h.529v.529h-.529zM47.096 28.046h.529v.529h-.529zM44.979 29.633h.529v.529h-.529zM45.508 29.633h.529v.529h-.529z"/>
  <path fill="#859baf" d="M44.45 29.633h.529v.529h-.529zM43.921 29.633h.529v.529h-.529z"/>
  <path fill="#859baf" d="M43.392 29.633h.529v.529h-.529zM42.863 29.633h.529v.529h-.529zM42.333 29.633h.529v.529h-.529z"/>
  <path fill="#859baf" d="M41.804 29.633h.529v.529h-.529zM41.275 29.633h.529v.529h-.529z"/>
  <path fill="#859baf" d="M40.746 29.633h.529v.529h-.529zM40.217 29.633h.529v.529h-.529z"/>
  <path fill="#859baf" d="M39.688 29.633h.529v.529h-.529zM39.158 29.633h.529v.529h-.529zM38.629 29.633h.529v.529h-.529z"/>
  <path fill="#859baf" d="M38.1 29.633h.529v.529H38.1zM37.571 29.633h.529v.529h-.529z"/>
  <path fill="#859baf" d="M37.042 29.633h.529v.529h-.529zM36.513 29.633h.529v.529h-.529zM35.983 29.633h.529v.529h-.529z"/>
  <path fill="#859baf" d="M35.454 29.633h.529v.529h-.529zM34.925 29.633h.529v.529h-.529z"/>
  <path fill="#859baf" d="M34.396 29.633h.529v.529h-.529zM33.867 29.633h.529v.529h-.529zM31.221 29.633h.529v.529h-.529zM30.692 29.633h.529v.529h-.529zM30.163 29.633h.529v.529h-.529zM29.633 29.633h.529v.529h-.529zM29.104 29.633h.529v.529h-.529zM29.104 28.046h.529v.529h-.529zM29.633 27.517h.529v.529h-.529zM30.163 26.988h.529v.529h-.529z"/>
  <path fill="#9db6cc" d="M30.163 26.458h.529v.529h-.529zM30.692 25.929h.529v.529h-.529zM30.692 25.4h.529v.529h-.529z"/>
  <path fill="#859baf" d="M30.692 24.871h.529v.529h-.529zM31.221 24.871h.529v.529h-.529z"/>
  <path fill="#9db6cc" d="M31.221 24.342h.529v.529h-.529zM33.338 23.813h.529v.529h-.529z"/>
  <path fill="#9db6cc" d="M33.867 23.813h.529v.529h-.529z"/>
  <path fill="#859baf" d="M47.096 28.575h.529v.529h-.529zM47.096 29.104h.529v.529h-.529zM46.567 29.633h.529v.529h-.529zM46.038 29.633h.529v.529h-.529zM28.575 29.104h.529v.529h-.529zM28.575 28.575h.529v.529h-.529z"/>
  <path fill="#9db6cc" d="M32.808 24.342h.529v.529h-.529z"/>
  <path fill="#9db6cc" d="M32.279 24.342h.529v.529h-.529zM31.75 24.342h.529v.529h-.529z"/>
  <path fill="#859baf" d="M31.75 29.633h.529v.529h-.529zM32.279 29.633h.529v.529h-.529z"/>
  <path fill="#859baf" d="M32.808 29.633h.529v.529h-.529zM33.338 29.633h.529v.529h-.529z"/>
  <path fill="#859baf" d="M31.75 24.87h1.588v-.528h5.82v.529h4.234v.529h.529v.53h1.587v.528h.53v.53h.529v1.058h.529v1.587H29.104v-1.058h.53v-.53h.529v-.528h.529v-1.059h.529V25.4h.529z"/>
  <path fill="#6c8499" d="M31.221 25.4h.529v.529h-.529zM31.75 25.4h.529v.529h-.529zM32.279 25.929h.529v.529h-.529z"/>
  <path fill="#6c8499" d="M32.808 25.929h.529v.529h-.529zM33.338 25.929h.529v.529h-.529z"/>
  <path fill="#6c8499" d="M33.867 25.929h.529v.529h-.529zM34.396 25.929h.529v.529h-.529z"/>
  <path fill="#6c8499" d="M34.925 25.929h.529v.529h-.529zM35.454 25.929h.529v.529h-.529z"/>
  <path fill="#6c8499" d="M35.983 25.929h.529v.529h-.529zM36.513 25.929h.529v.529h-.529zM37.042 25.929h.529v.529h-.529zM38.1 26.458h.529v.529H38.1zM37.571 26.458h.529v.529h-.529z"/>
  <path fill="#6c8499" d="M38.629 26.458h.529v.529h-.529zM39.158 26.458h.529v.529h-.529z"/>
  <path fill="#9db6cc" d="M30.692 24.871h.529v.529h-.529z"/>
  <path fill="#6c8499" d="M44.45 25.4h.529v.529h-.529zM43.921 25.929h.529v.529h-.529zM43.921 26.458h.529v.529h-.529z"/>
  <path fill="#6c8499" d="M43.392 26.458h.529v.529h-.529zM43.392 26.988h.529v.529h-.529zM42.863 26.988h.529v.529h-.529zM41.804 26.988h.529v.529h-.529z"/>
  <path fill="#6c8499" d="M42.333 26.988h.529v.529h-.529zM41.275 27.517h.529v.529h-.529z"/>
  <path fill="#6c8499" d="M40.746 27.517h.529v.529h-.529zM40.217 27.517h.529v.529h-.529z"/>
  <path fill="#6c8499" d="M39.688 27.517h.529v.529h-.529zM39.158 27.517h.529v.529h-.529zM38.629 28.046h.529v.529h-.529z"/>
  <path fill="#6c8499" d="M38.1 28.046h.529v.529H38.1zM37.571 28.046h.529v.529h-.529z"/>
  <path fill="#6c8499" d="M37.042 28.046h.529v.529h-.529zM36.513 28.046h.529v.529h-.529zM35.983 28.046h.529v.529h-.529z"/>
  <path fill="#6c8499" d="M35.454 28.046h.529v.529h-.529zM30.163 26.988h.529v.529h-.529zM30.692 27.517h.529v.529h-.529zM31.221 27.517h.529v.529h-.529zM31.75 27.517h.529v.529h-.529zM32.279 27.517h.529v.529h-.529zM32.808 28.046h.529v.529h-.529zM33.338 28.575h.529v.529h-.529z"/>
  <path fill="#6c8499" d="M33.867 28.575h.529v.529h-.529zM34.396 29.104h.529v.529h-.529z"/>
  <path fill="#6c8499" d="M34.925 29.104h.529v.529h-.529zM35.454 29.104h.529v.529h-.529zM36.513 29.104h.529v.529h-.529z"/>
  <path fill="#6c8499" d="M35.983 29.104h.529v.529h-.529zM37.042 29.104h.529v.529h-.529z"/>
  <path fill="#6c8499" d="M37.571 29.104h.529v.529h-.529zM38.629 29.104h.529v.529h-.529z"/>
  <path fill="#6c8499" d="M38.1 29.104h.529v.529H38.1z"/>
  <path fill="#51697f" d="M47.096 29.633h.529v.529h-.529z"/>
  <path fill="#51697f" d="M47.096 29.633h.529v.529h-.529zM47.096 29.104h.529v.529h-.529zM47.096 28.575h.529v.529h-.529zM47.096 28.046h.529v.529h-.529zM47.096 27.517h.529v.529h-.529zM46.567 26.988h.529v.529h-.529z"/>
  <path fill="#51697f" d="M46.567 27.517h.529v.529h-.529zM47.096 26.988h.529v.529h-.529zM46.567 28.046h.529v.529h-.529zM46.567 28.575h.529v.529h-.529zM46.567 29.104h.529v.529h-.529zM46.567 29.633h.529v.529h-.529zM46.038 29.633h.529v.529h-.529zM46.038 29.104h.529v.529h-.529zM46.038 28.575h.529v.529h-.529zM46.038 28.046h.529v.529h-.529zM46.038 27.517h.529v.529h-.529zM46.038 26.988h.529v.529h-.529zM46.038 26.458h.529v.529h-.529zM45.508 25.929h.529v.529h-.529zM45.508 26.458h.529v.529h-.529zM46.567 26.458h.529v.529h-.529zM44.979 25.4h.529v.529h-.529z"/>
  <path fill="#51697f" d="M44.45 25.4h.529v.529h-.529zM43.921 25.4h.529v.529h-.529z"/>
  <path fill="#51697f" d="M43.392 25.4h.529v.529h-.529zM43.392 24.871h.529v.529h-.529zM42.863 24.342h.529v.529h-.529zM42.863 24.871h.529v.529h-.529zM42.863 25.4h.529v.529h-.529zM44.45 25.929h.529v.529h-.529z"/>
  <path fill="#51697f" d="M44.979 25.929h.529v.529h-.529zM44.979 26.458h.529v.529h-.529zM44.979 26.988h.529v.529h-.529zM45.508 26.988h.529v.529h-.529zM45.508 27.517h.529v.529h-.529zM45.508 28.046h.529v.529h-.529zM45.508 28.575h.529v.529h-.529zM45.508 29.104h.529v.529h-.529zM45.508 29.633h.529v.529h-.529zM44.979 29.633h.529v.529h-.529zM44.979 29.104h.529v.529h-.529zM44.979 28.575h.529v.529h-.529z"/>
  <path fill="#4a5f71" d="M44.45 25.929h.529v.529h-.529z"/>
  <path fill="#4a5f71" d="M44.979 25.929h.529v.529h-.529zM45.508 25.929h.529v.529h-.529z"/>
  <path fill="#378967" d="M62.97 25.93v.528h-1.058v.53h-1.058v-.53h-1.059v.53h-.528v.529h-.53v.529H57.15v-.53h-.53v-.529h-1.058v-.529h-1.587v.53h-1.058v.529h-.53v.529H51.33v.529H50.27v-.53h-1.058v.53h-1.587v.53h-.53v.528h-.528v-.529H44.45v.53h-1.058v-.53h-.53v-.529h-1.058v.53h-.529v.528h-1.058v-1.058h-1.059v-.53H38.1v.53h-.53v.53h-.528v-.53h-1.059v.53h-1.058v.528h-.53v-.529h-1.058v-.529H32.28v-.53H31.22v.53h-1.587v.53h-1.058v-.53h-.53v-.53h-1.587v-.528h-.529v-.53h-1.587v.53h-2.117v-.53h-1.588v.53h-.529v.529h-.529v.529h-2.646v-.53h-.529v-.528h-2.646v.529H12.7v.529h-.53v.53h-.528v.528h-.53v.53h-.529v.529H8.467v-.53h-.53v-.529H6.35v-.529h-.53v-.529H4.763v.53H3.175v-.53H1.058v.53H0V38.1h63.5V25.929z"/>
  <path fill="#237b64" d="M31.22 27.517v.529h1.06v-.53h-1.06m1.06.529v.529h1.058v-.53h-1.059m1.057.529v.53h1.059v-.53h-1.059m1.059.53v.528h.529v-.529zm.529 0h1.058v-.53h-1.058zm1.058-.53h1.059v-.53h-1.059zm1.059 0v.53h.529v-.53zm.529 0h.529v-.53h-.53zm.529-.53h1.058v-.528H38.1zm1.058 0v.53h1.059v-.53h-1.059m1.059.53v1.058h1.058v-.529h-.53v-.529zm1.058.53h.53v-.53h-.53zm.53-.53h1.058v-.53h-1.059zm1.057 0v.53h.53v-.53zm.53.53v.528h1.058v-.529h-1.058m1.058 0h2.117v-.53H44.45zm2.117 0v.528h.529v-.529zm.529 0h.529v-.53h-.53zm-15.875-1.06h-1.588v.53h1.588zm-1.588.53h-1.058v.53h1.058z"/>
  <path fill="#4ea46e" d="M60.325 28.046v.529h.53v-.53zm.53.529v.53h.528v-.53zm.528 0h.53v-.53h-.53zm-5.291 0v.53h.529v-.53zm-43.392.53v.528h.53v-.529zm.53.528v.53h.528v-.53zm.528 0h.53v-.529h-.53zm10.054-.529v.53H25.4v-.53h-1.588m2.646 0v.53h.53v-.53zm.53.53v.528h.529v-.529zm3.704-.53v.53h.529v-.53zm.529.53v.528h.529v-.529zm.529 0h.53v-.53h-.53zm23.283-.53v.53h.53v-.53zm2.646 0v.53h.53v-.53zm-39.687.53v.528h.529v-.529zm17.991 0v.528h.53v-.529zm25.93 0v.528h.529v-.529zm.529.528v.53h.529v-.53zm-59.796 0v.53h1.587v-.53H2.645m2.646 0v.53h.529v-.53zm.529.53v.529h.529v-.53zm10.583-.53v.53h.53v-.53zm2.646 0v.53h.53v-.53zm3.175 0v.53h1.588v-.53h-1.588m2.117 0v.53h.529v-.53zm4.233 0v.53h.53v-.53zm0 .53h-.53v.529h.53zm0 .529v.529h.53v-.53zm5.82-1.059v.53h.53v-.53zm2.647 0v.53h.529v-.53zm13.229 0v.53h.529v-.53zm5.82 0v.53h.53v-.53zm4.234 0v.53h.53v-.53zm0 .53h-.53v.529h.53zm-48.154 0v.529h1.059v-.53h-1.06m1.058.529v.529h1.058v-1.058h-.529v.529zm1.058.529v1.058h.53V31.75zm.53 1.058v.53h.529v-.53zm-2.646-1.587h-.53v.529h.53zm7.937-.53v.53h.53v-.53zm1.059 0v.53h.529v-.53zm8.995 0v.53h.53v-.53zm0 .53h-.529v.529h.53zm17.992-.53v.53h.53v-.53zm4.233 0v.53h.53v-.53zm5.292 0v.53h.53v-.53zm-56.62.53v.529h1.587v-.53H1.058m2.116 0v.529h.53v-.53zm4.233 0v.529H6.88v.53h.53v.528h.528V31.22zm1.059 0v.529h.529v-.53zm9.525 0v.529h.529v-.53zm8.466 0v.529h.53v-.53zm0 .529h-.529v.53h.53zm5.292-.53v.53h.53v-.53zm.53.53v.53h.528v-.53zm3.703-.53v.53h.53v-.53zm5.821 0v.53h.53v-.53zm-42.862.53v.53h.529v-.53zm1.058 0v.53h.53v-.53zm10.054 0v.53h.53v-.53zm6.35 0v.53h.53v-.53zm5.292 0v.53h.529v-.53zm12.7 0v.53h.529v-.53zm5.291 0v.53h.53v-.53zm4.234 0v.53h.529v-.53zm4.233 0v.53h.53v-.53zm3.704 0v.53h.53v-.53zm4.234 0v.53h.529v-.53zm6.35 0v1.588h.529V31.75zm-57.15.53v.528h.529v-.529zm0 .528h-.53v.53h.53zm43.92-.529v.53h.53v-.53zm4.763 0v.53h.53v-.53zm7.408 0v.53h.53v-.53zM.53 32.81v.528h.53v-.529zm7.938 0v.528h.529v-.529zm3.175 0v1.587h.529v-.53h1.059v-1.058h-.53v.53h-.53v-.53zm6.35 0v.528h.529v-.529zm1.587 0v.528h.53v-.529zm2.646 0v.528h.53v-.529zm1.587 0v.528h.53v-.529zm5.821 0v1.587h.53v-1.588zm6.35 0v.528h.53v-.529zm4.234 0v.528h.529v-.529zm3.704 0v.528h.529v-.529zm3.704 0v1.587h.53v-1.588zm2.646 0v.528h.529v-.529zm2.646 0v.528h.529v-.529zm2.116 0v.528h.53v-.529zm3.704 0v.528h.53v-.529zm-48.683.528v.53h.53v-.53zm20.638 0v.53h.529v-.53zm7.408 0v.53h.53v-.53zm4.762 0v.53h.53v-.53zm14.288 0v.53h.53v-.53zm4.233 0v1.588h.53v-1.588zm-62.97.53v.529h.529v-.53zm2.645 0v.529h.53v-.53zm1.588 0v.529h.529v-.53zm12.7 0v.529h.529v-.53zm0 .529h-.53v1.587h1.059v-.529h-.53v-1.059m-.53 1.587h-1.058v.53h-.529v.529h.53v.529h.528v-1.059h.53zm-1.058 1.588h-.529v1.059h.53v-1.06m5.292-3.704v.529h.53v-.53zm6.88 0v.529h.528v-.53zm1.587 0v.529h.529v-.53zm5.82 0v.529h.53v-.53zm3.705 0v.529h.529v-.53zm2.116 0v.529h.53v-.53zm2.646 0v.529h.53v-.53zm2.646 0v1.588h.53v-1.588zm7.408 0v.529h.53v-.53zm-43.391.529v.529h.529v-.53zm4.233 0v1.587h.53v-1.588zm4.233 0v.529h.53v-.53zm4.234 0v.529h.529v-.53zm2.116 0v.529h.53v-.53zm7.409 0v1.587h.529v-1.588zm4.233 0v.529h.53v-.53zm11.642 0v1.587h.529v-1.588zm3.704 0v.529h.529v-.53zm3.704 0v.529h.53v-.53zm2.117 0v.529h.529v-.53zm2.645 0v.529h.53v-.53zm-53.975.529v.53h.53v-.53zm1.588 0v.53h.53v-.53zm7.408 0v.53h.53v-.53zm6.35 0v.53h.53v-.53zm20.109 0v.53h.529v-.53zm7.408 0v.53h.53v-.53zm7.408 0v.53h.53v-.53zm4.763 0v.53h.529v-.53zM0 35.455v.528h.53v-.529zm2.117 0v.528h.529v-.529zm5.291 0v.528h.53v-.529zm3.704 0v.528h.53v-.529zm6.88 0v.528h.529v-.529zm4.233 0v.528h.53v-.529zm2.646 0v.528h.529v-.529zm1.587 0v.528h.53v-.529zm1.588 0v.528h.529v-.529zm5.291 0v.528h.53v-.529zm2.646 0v.528h.53v-.529zm2.117 0v.528h.53v-.529zm3.704 0v.528h.53v-.529zm3.704 0v1.587h.53v-1.588zm7.409 0v.528h.529v-.529zm4.233 0v.528h.53v-.529zm3.704 0v.528h.53v-.529zm-61.912.528v.53h.529v-.53zm10.583 0v.53h.53v-.53zm9.525 0v.53h.53v-.53zm13.23 0v.53h.528v-.53zm4.762 0v.53h.529v-.53zm7.408 0v.53h.53v-.53zm-43.392.53v.529h.53v-.53zm2.646 0v.529h.53v-.53zm1.588 0v.529h.529v-.53zm1.587 0v.529h.53v-.53zm10.054 0v.529h.53v-.53zm4.763 0v.529h.529v-.53zm2.116 0v.529h.53v-.53zm3.705 0v.529h.529v-.53zm3.704 0v.529h.529v-.53zm3.704 0v.529h.53v-.53zm4.233 0v.529h.53v-.53zm10.054 0v.529h.53v-.53zm0 .529h-.529v.529h.53zm2.117-.53v.53h.53v-.53zm5.292 0v.53h.529v-.53zm4.233 0v.53h.53v-.53zm-52.387.53v.529h.529v-.53zm2.645 0v.529h.53v-.53zm35.455 0v.529h.529v-.53zm.529.529v.529h.529v-.53zm5.82-.53v.53h.53v-.53zm5.821 0v.53h.53v-.53zm-58.208.53v.529h.53v-.53zm2.117 0v.529h.529v-.53zm3.704 0v.529h.53v-.53zm1.058 0v.529h.53v-.53zm4.763 0v.529h.529v-.53zm5.291 0v.529h.53v-.53zm13.759 0v.529h.529v-.53zm4.233 0v.529h.53v-.53zm5.292 0v.529h.529v-.53zm2.116 0v.529h.53v-.53zm.53.529v.53h.529v-.53zm-33.867 0v.53h.53v-.53zm5.82 0v.53h.53v-.53zm17.992 0v.53h.53v-.53zm5.821 0v.53h.53v-.53zm6.35 0v.53h.53v-.53zm0 .53h-.529v.528h.53zm5.821-.53v.53h.53v-.53zm2.646 0v.53h.53v-.53zm-5.82.53v.528h.528v-.529zm.528.528v.53h.53v-.53zm-.529 0h-.529v.53h.53zm4.763-.529v.53h.529v-.53zm-43.921.53v.528h.529v-.529zm4.233 0v.528h.53v-.529zm24.871 0v.528h.53v-.529zm2.646 0v.528h.529v-.529zm-29.634.528v.53h.53v-.53zm28.046 0v.53h.53v-.53zm4.763 0v.53h.529v-.53zm.529.53v.529h.53v-.53zm-.53 0h-.528v.529h.529z"/>
  <path fill="#ecf1c2" d="M52.917 14.817v.529h1.058v-.53zm-38.63 1.058v.53h1.059v-.53zm8.467 0v.53h1.058v-.53zm38.63 0v.53h1.058v-.53zM2.645 17.462v.53h1.058v-.53zm53.975.53v.529h1.058v-.53zm-26.459 1.587v.53h1.059v-.53zm-3.175 2.646v.53h1.059v-.53zm-17.462.53v.528h1.058v-.529zm9.525 1.057v.53h1.058v-.53zm28.575 0v.53h1.058v-.53zm9.525 1.059v.529h1.058v-.53zm-46.038 1.058v.53h1.059v-.53zm38.1 4.763v.529h1.059v-.53zm11.113.529v.529h1.058v-.53zm-20.638 1.058v.53h1.059v-.53zm13.759 1.058v.53h1.058v-.53zm-47.625.53v.529h1.058v-.53zM20.108 31.75h1.587v.529h-1.587zM29.633 34.396h1.587v.529h-1.587zM2.646 24.871h1.587v.529H2.646zM24.871 25.4h1.587v.529h-1.587z"/>
  <path fill="#64463c" d="M37.042 22.754v.53h.529v-.53zm0 .53h-.53v.529h.53zm-.53.529h-.529v.529h.53zm-.529.529h-.529v.529h-1.059v.529h2.118v-.53h-.53zm5.821-1.588v.53h.53v-.53zm0 .53h-.529v1.058h.53v-.53zm-.529 1.058h-.53V25.4h-1.058v.53h2.118v-.53h-.53v-.53z"/>
  <path fill="#375a79" d="M35.454 4.233v.53h-1.059v.529h-.528v.529h-.53v1.587h-.529v2.117h-.529v1.058h.53v.53H31.75v2.117h-.53v3.175h.53v1.587h.53v1.058h.528v.53h.53v.528h.529v.53h.529v.529h1.059v.529h1.058v.529h1.058v.53h4.762v-.53h.53v-.53h1.587v-.528h.53v-.53h.528v-.529h3.175v.53h2.647v.529h2.116v-.53h.529V19.58h-.53v-.529h-1.058v-.53H51.33v-.528H50.8v-.53h-1.058v-.529h.529v-1.587h-.53v-.53h-.528v-.528h-.53v-.53h-.529v-.529h-.529V12.7h-.53v-.53h-.528v-.528h-.53v-.53h-.529v-.529h-.529v-.529h-.529v-.529h-.53v-.53h-.528v-.528h-.53V7.408h-.529V6.88h-.529V6.35h-.529v-.53h-.53v-.528h-.528v-.53h-1.059v-.529h-3.175z"/>
  <path fill="#4d547c" d="M31.75 7.938v.529h-1.058v.529h1.058v.529h1.058V7.937h-.529z"/>
  <path fill="#3b2610" d="M36.513 7.408v1.588h1.058V7.408h-.53z"/>
  <path fill="#d2e2e5" d="M37.042 7.938h.529v.529h-.529z"/>
  <path fill="#23405a" d="M38.63 12.7v1.058h.528v.53h.53v.529h.529v.529h.529v.529h.529v.53h1.588v.528h1.587v.53h5.292v-.53h-3.705v-.529H44.45v-.529h-1.588v-.53h-1.587v-.528h-.53v-.53h-.528v-.529h-.53v-.529h-.529V12.7z"/>
  <path fill="#a3bfd1" d="M31.75 10.583h.529v.529h-.529zM31.221 10.583h.529v.529h-.529zM30.163 11.642h.529v.529h-.529zM30.163 11.113h.529v.529h-.529z"/>
  <path fill="#819eb1" d="M30.692 10.583h.529v.529h-.529z"/>
  <path fill="#35717b" d="M46.038 12.17v1.06h1.058v1.058h.529v.529h.53v.529h.528v.529h-2.646v-.53H44.45v1.06h1.588v.528h4.233v-1.588h-.53v-.528h-.528v-.53h-.53v-.529h-.529v-.529h-.529V12.7h-.53v-.53h-.528zM48.154 17.463v.529h1.588v.529H50.8v1.059h-1.588v-.53h-3.704v1.058h3.175v.53h2.647v.529h2.116v-.53h.529V19.58h-.53v-.529h-1.058v-.53H51.33v-.528H50.8v-.53h-2.117z"/>
  <path fill="#7b96ae" d="M41.804 8.467v.529h-1.059v.529h-.528v.53h-.53v.528H38.63v.53h-5.292v-.53H32.28v.53h.53v.529h1.058v.529h5.291v-.53h.53v-.528h.529v-.53h1.058v-.529h1.058v-.529h1.059V8.467h-1.059z"/>
  <path fill="#a3bfd1" d="M30.692 10.583v.53h-.53V12.7h.53v.53h1.058v-1.06h.53v-1.587h-1.06z"/>
  <path fill="#a6c6dc" d="M30.692 11.113V12.7h.529v-.53h.529v-.528h.53v-.53h-1.06z"/>
  <path fill="#b6cad6" d="M30.692 10.583v.53h1.588v-.53h-1.06zm0 .53h-.53V12.7h.53v-1.058z"/>
</svg>